<?xml version="1.0" standalone="no"?><!DOCTYPE svg PUBLIC "-//W3C//DTD SVG 1.1//EN" "http://www.w3.org/Graphics/SVG/1.1/DTD/svg11.dtd"><svg t="1592630116814" class="icon" viewBox="0 0 1024 1024" version="1.1" xmlns="http://www.w3.org/2000/svg" p-id="9936" xmlns:xlink="http://www.w3.org/1999/xlink" width="200" height="200"><defs><style type="text/css"></style></defs><path d="M341.333333 256h113.066667c8.533333 0 14.933333 2.133333 19.2 8.533333s8.533333 12.8 8.533333 19.2v454.4c0 8.533333-2.133333 14.933333-8.533333 19.2s-12.8 8.533333-19.2 8.533334h-113.066667c-8.533333 0-14.933333-2.133333-19.2-8.533334s-8.533333-12.8-8.533333-19.2v-454.4c0-8.533333 2.133333-14.933333 8.533333-19.2s10.666667-8.533333 19.2-8.533333z m228.266667 0h113.066667c8.533333 0 14.933333 2.133333 19.2 8.533333s8.533333 12.8 8.533333 19.2v454.4c0 8.533333-2.133333 14.933333-8.533333 19.2s-12.8 8.533333-19.2 8.533334h-113.066667c-8.533333 0-14.933333-2.133333-19.2-8.533334s-8.533333-12.8-8.533333-19.2v-454.4c0-8.533333 2.133333-14.933333 8.533333-19.2s10.666667-8.533333 19.2-8.533333z" p-id="9937" fill="#2c2c2c"></path></svg>